HIERARCHY
ROOT hip
{
	OFFSET 0.000000 0.000000 0.000000 
	CHANNELS 6 Xposition Yposition Zposition Xrotation Zrotation Yrotation
	JOINT abdomen
	{
		OFFSET 0.000000 3.402643 0.000000 
		CHANNELS 3 Xrotation Zrotation Yrotation
		JOINT chest
		{
			OFFSET 0.000000 8.438565 -0.680529 
			CHANNELS 3 Xrotation Zrotation Yrotation
			JOINT neck
			{
				OFFSET 0.000000 10.207942 -0.272212 
				CHANNELS 3 Xrotation Zrotation Yrotation
				JOINT head
				{
					OFFSET 0.000000 3.130431 0.000000 
					CHANNELS 3 Xrotation Zrotation Yrotation
					End Site
					{
						OFFSET 0.000000 3.130435 0.000000 
					}
				}
			}
			JOINT lCollar
			{
				OFFSET 3.470700 6.669187 -0.816635 
				CHANNELS 3 Yrotation Zrotation Xrotation
				JOINT lShldr
				{
					OFFSET 3.198488 0.000000 0.000000 
					CHANNELS 3 Zrotation Yrotation Xrotation
					JOINT lForeArm
					{
						OFFSET 10.139888 0.000000 0.000000 
						CHANNELS 3 Yrotation Zrotation Xrotation
						JOINT lHand
						{
							OFFSET 8.370511 0.000000 0.000000 
							CHANNELS 3 Zrotation Yrotation Xrotation
							End Site
							{
								OFFSET 4.083176 0.000000 0.000000 
							}
						}
					}
				}
			}
			JOINT rCollar
			{
				OFFSET -3.470700 6.669187 -0.816635 
				CHANNELS 3 Yrotation Zrotation Xrotation
				JOINT rShldr
				{
					OFFSET -3.198488 0.000000 0.000000 
					CHANNELS 3 Zrotation Yrotation Xrotation
					JOINT rForeArm
					{
						OFFSET -10.139888 0.000000 0.000000 
						CHANNELS 3 Yrotation Zrotation Xrotation
						JOINT rHand
						{
							OFFSET -8.370511 0.000000 0.000000 
							CHANNELS 3 Zrotation Yrotation Xrotation
							End Site
							{
								OFFSET -4.083176 0.000000 0.000000 
							}
						}
					}
				}
			}
		}
	}
	JOINT lThigh
	{
		OFFSET 5.308129 -1.633274 1.361059 
		CHANNELS 3 Xrotation Zrotation Yrotation
		JOINT lShin
		{
			OFFSET -2.041588 -20.007561 0.000000 
			CHANNELS 3 Xrotation Zrotation Yrotation
			JOINT lFoot
			{
				OFFSET 0.000000 -19.190928 -1.224953 
				CHANNELS 3 Xrotation Yrotation Zrotation
				End Site
				{
					OFFSET 0.000000 -2.449906 4.627600 
				}
			}
		}
	}
	JOINT rThigh
	{
		OFFSET -5.308129 -1.633274 1.361059 
		CHANNELS 3 Xrotation Zrotation Yrotation
		JOINT rShin
		{
			OFFSET 2.041588 -20.007561 0.000000 
			CHANNELS 3 Xrotation Zrotation Yrotation
			JOINT rFoot
			{
				OFFSET 0.000000 -19.190928 -1.224953 
				CHANNELS 3 Xrotation Yrotation Zrotation
				End Site
				{
					OFFSET 0.000000 -2.449906 4.627600 
				}
			}
		}
	}
}
MOTION
Frames: 16
Frame Time: 0.016667
2.019756 57.104542 3.040684 1.425978 -0.803298 -11.690752 0.000000 0.000000 0.000000 6.519342 4.135347 -2.897882 -12.564053 -1.698887 -1.133473 -2.326161 -3.846903 -1.135501 16.851809 12.137338 16.757378 -86.512901 -27.412657 70.640327 -13.304465 -0.865719 12.680757 -7.731276 -5.950528 -0.488376 -17.185944 -18.835140 23.899818 93.485962 26.849199 36.028519 8.360095 -0.330759 16.700369 -3.293033 2.940603 -1.438879 4.577412 8.968211 -6.189232 -3.328661 -1.885690 1.368669 23.320013 2.151628 -33.697868 2.096516 -6.848623 -15.213297 -3.376601 1.890548 0.377862 32.327492 6.297341 -0.207761 
1.911048 56.505119 2.819562 1.689379 -0.599869 -12.832748 0.000000 0.000000 0.000000 7.274627 4.554494 -2.958509 -13.397997 -1.953103 0.273279 -3.289009 -4.608079 -1.362448 16.884489 11.300075 17.283783 -84.719810 -27.489637 69.591736 -15.498796 0.076543 14.271156 -4.277822 -5.036460 -0.814033 -17.179749 -19.402723 24.451290 92.386375 29.195940 36.682907 9.225241 -0.300019 16.827801 -3.254679 2.950776 -1.447154 4.081293 8.560577 -7.159432 -3.382781 -1.922481 -0.180416 24.622322 2.070932 -33.744377 1.052613 -7.737193 -13.248252 -1.560377 1.869757 -0.235692 32.730232 6.344705 -0.676392 
1.802325 55.904781 2.598537 1.944822 -0.398000 -13.984776 0.000000 0.000000 0.000000 8.039637 4.973635 -3.008761 -14.224680 -2.186549 1.690458 -4.245538 -5.378802 -1.589710 16.918619 10.449264 17.811298 -82.925827 -27.537180 68.540573 -17.725109 0.951398 15.888174 -0.847507 -4.109135 -1.089345 -17.167234 -19.968773 25.000000 91.287933 31.560886 37.293919 10.080774 -0.267811 16.951353 -3.206048 2.961756 -1.445173 3.593933 8.133049 -8.105542 -3.439127 -1.958897 -1.768571 25.906469 2.042263 -33.783451 -0.010092 -8.593499 -11.265124 0.252699 1.876364 -0.860181 33.132389 6.396439 -1.143988 
1.688792 55.060600 2.400558 2.087568 -0.386338 -15.224978 0.000000 0.000000 0.000000 8.653676 5.490838 -2.942397 -14.537938 -2.311137 3.068635 -5.052031 -6.100503 -1.807452 16.907024 9.814044 17.668018 -81.281830 -26.655851 65.336891 -19.745794 1.182249 17.238152 -4.374572 -5.067790 -0.813739 -17.131168 -20.469828 25.000000 89.862068 33.176025 37.913555 10.956411 -0.283766 17.137629 -3.322613 2.929554 -1.449565 4.041207 7.397315 -5.500446 -3.501709 -2.000896 -3.317250 24.671476 1.708830 -29.256620 -2.362973 -9.537524 -7.282046 5.658885 1.931908 0.119809 28.329176 6.201476 -0.405859 
1.575261 54.215538 2.202557 2.229856 -0.374607 -16.465248 0.000000 0.000000 0.000000 9.259642 5.998344 -2.876264 -14.857227 -2.434064 4.447222 -5.863920 -6.821985 -2.016774 16.890896 9.185369 17.518826 -79.712051 -25.681425 62.207726 -21.772608 1.379855 18.598087 -7.896771 -6.001610 -0.474004 -17.103518 -20.980804 24.995617 88.418701 34.805538 38.489487 11.825675 -0.303703 17.329165 -3.429891 2.897010 -1.463073 4.439472 6.654299 -2.891443 -3.510891 -2.037781 -4.868971 23.429558 1.296846 -24.726213 -4.803642 -10.309464 -3.238034 11.057622 1.893315 1.067586 23.517454 5.959789 0.287188 
1.461807 53.128654 1.997082 2.761790 -0.511417 -17.793718 0.000000 0.000000 0.000000 9.043832 6.624015 -2.614099 -14.342632 -2.400040 5.737192 -6.962935 -7.523629 -2.236063 16.807205 8.907229 16.344179 -78.548134 -23.504992 61.511917 -23.661705 1.992760 20.481590 -7.037802 -5.777072 -0.561525 -16.939425 -21.384865 24.998753 86.797012 34.685009 39.161762 12.520935 -0.469757 17.693144 -3.721377 2.821293 -1.473508 0.399784 6.326124 0.862842 6.588653 -2.265805 -6.222882 13.168069 1.631186 -18.207140 -5.035755 -10.452655 0.160775 12.533945 1.910969 1.822753 15.007225 5.611250 2.407824 
1.348327 52.041359 1.791315 3.296904 -0.636650 -19.122362 0.000000 0.000000 0.000000 8.822774 7.249757 -2.361973 -13.818030 -2.374624 7.027158 -8.058907 -8.234834 -2.437579 16.722342 8.626950 15.168615 -77.428009 -21.333036 60.871437 -25.566734 2.547755 22.380896 -6.169695 -5.541494 -0.644428 -16.774597 -21.795120 24.994572 85.170776 34.574440 39.835636 13.200180 -0.630471 18.064260 -4.002807 2.736061 -1.481600 -3.657770 6.280642 4.651576 16.668741 -2.236745 -7.613393 2.926931 0.790332 -11.762281 -5.268861 -10.578090 3.581483 14.008979 1.910973 2.576331 6.527182 4.907387 4.450019 
1.227572 50.837597 1.508138 4.171681 -0.914141 -20.598572 0.000000 0.000000 0.000000 8.259404 7.885492 -2.079908 -12.628983 -2.066050 8.657943 -10.727269 -9.052608 -2.700392 16.553080 8.353846 14.415333 -76.638382 -19.839882 59.092934 -26.137882 2.605801 22.817799 -6.306619 -5.581831 -0.626878 -16.148441 -21.439423 24.503527 83.253166 33.507801 40.352779 13.382872 -1.002271 18.598253 -4.226075 2.671812 -1.488070 -7.557083 7.244302 5.952665 25.041895 -1.899895 -7.476605 -5.665769 1.063803 -9.773821 -6.864532 -9.745281 3.434191 17.323362 1.871794 3.104500 -1.827996 4.605740 3.985229 
1.106622 49.635143 1.224584 5.063259 -1.167441 -22.075241 0.000000 0.000000 0.000000 7.691133 8.521213 -1.806445 -11.427874 -1.787221 10.288197 -13.394810 -9.870198 -2.925230 16.370308 8.084431 13.662045 -75.900154 -18.331600 57.343422 -26.693094 2.666876 23.244848 -6.442716 -5.613510 -0.619906 -15.524069 -21.088268 24.003624 81.345749 32.462048 40.899281 13.564458 -1.373868 19.133867 -4.450023 2.616530 -1.504528 -11.443463 8.299054 7.218603 33.415733 -1.573961 -7.316772 -14.225894 1.039837 -7.770120 -8.475384 -8.895463 3.274236 20.631735 1.793180 3.624787 -10.158579 4.369531 3.479059 
0.935462 48.768585 0.844371 6.214956 -1.035931 -22.718866 0.000000 0.000000 0.000000 6.517133 8.013989 -1.724965 -9.865308 -0.794944 11.260836 -16.515295 -10.346615 -3.087651 15.226889 8.418906 12.634818 -75.924347 -17.048079 55.869904 -24.775026 3.071948 22.914507 -9.069163 -6.305417 -0.343150 -14.475416 -18.892033 20.238794 79.917702 28.678633 41.497459 11.718293 -2.442265 19.776114 -4.420705 2.617300 -1.503189 -15.133102 9.225636 7.529374 38.888329 -1.262482 -7.129951 -18.218637 1.113177 -6.999629 -12.142540 -7.848222 2.771753 25.977816 1.577467 3.349116 -14.841858 4.285983 2.429446 
0.764267 47.904152 0.464339 7.365785 -0.887548 -23.362455 0.000000 0.000000 0.000000 5.352734 7.506743 -1.633988 -8.273261 0.171781 12.246155 -19.621506 -10.813472 -3.211823 14.084241 8.783241 11.617915 -75.987183 -15.777187 54.416153 -22.841137 3.472012 22.562508 -11.688417 -6.988286 -0.034080 -13.284440 -16.773109 16.490822 78.506989 24.924370 42.185120 9.858984 -3.542723 20.378544 -4.411189 2.627290 -1.503482 -18.834463 10.173276 7.785364 44.345222 -0.980231 -6.920759 -22.203283 1.158064 -6.219192 -15.802920 -6.823305 2.215105 31.322178 1.391229 3.047007 -19.523977 4.248475 1.400558 
0.584959 47.590870 0.133669 7.382149 -0.899521 -22.913153 0.000000 0.000000 0.000000 5.484519 6.880666 -1.986522 -7.531707 0.905329 12.618828 -20.916882 -11.347965 -3.378341 12.870740 9.396029 11.707247 -78.001495 -16.829855 52.570290 -17.089636 4.080213 21.186563 -13.379736 -7.407692 0.173859 -12.174130 -15.140760 15.214016 79.526581 24.233995 43.402893 3.669758 -4.939828 18.900455 -8.236723 1.529206 -1.641458 -20.438429 10.360781 6.725589 46.561131 -0.831356 -6.474183 -22.900095 1.211271 -6.556081 -17.455074 -6.443482 2.206159 34.223366 1.244317 2.752699 -20.757385 4.202211 1.485502 
0.405629 47.279640 -0.196440 7.392155 -0.920588 -22.454235 0.000000 0.000000 0.000000 5.624033 6.254596 -2.338039 -6.792272 1.627123 13.003529 -22.192238 -11.872572 -3.533671 11.656140 9.999569 11.801902 -79.990273 -17.969658 50.772789 -11.314820 4.551785 19.753353 -15.072330 -7.832573 0.398482 -11.030802 -13.538541 13.921901 80.532227 23.518848 44.583645 -2.548112 -6.156161 17.261671 -12.067400 0.416420 -1.696633 -22.030272 10.516999 5.665620 48.765690 -0.677251 -6.049559 -23.577581 1.267613 -6.879886 -19.088417 -6.063557 2.186277 37.093021 1.116930 2.457485 -21.958878 4.151942 1.555316 
0.222124 47.492638 -0.381376 6.605301 -1.303236 -21.060534 0.000000 0.000000 0.000000 6.504160 6.222670 -2.877270 -7.130374 1.624908 11.831040 -20.966202 -11.075768 -3.305552 11.756488 10.541296 13.907934 -83.166245 -21.998102 52.407421 -5.823457 4.937471 18.452709 -17.363001 -8.390968 0.719314 -11.172927 -13.298748 15.930246 82.585411 26.393436 42.870304 -5.807302 -5.007185 15.171088 -18.325651 -1.380843 -1.651511 -21.188511 10.320647 4.247891 47.567383 -0.763129 -5.946466 -22.668884 1.260215 -7.019435 -17.448025 -6.112250 0.770296 35.763027 1.185435 2.418439 -21.189917 4.194592 1.320817 
0.038375 47.707512 -0.565673 5.809639 -1.664527 -19.666870 0.000000 0.000000 0.000000 7.363691 6.199910 -3.427268 -7.470035 1.612334 10.658822 -19.727472 -10.278636 -3.057079 11.825854 11.091462 16.012985 -86.564102 -25.913380 54.312138 -0.332474 5.200055 17.119434 -19.615881 -8.924176 1.055894 -11.326718 -13.057031 17.920282 84.592293 29.297394 41.199390 -8.995119 -3.744685 13.158705 -24.567991 -3.155017 -1.401629 -20.330111 10.135634 2.834646 46.378178 -0.823890 -5.851834 -21.759344 1.241304 -7.153801 -15.787865 -6.121584 -0.671459 34.432728 1.263799 2.371109 -20.399189 4.241374 1.088770 
-0.205789 48.397560 -0.586340 5.298877 -1.851077 -17.734297 0.000000 0.000000 0.000000 6.451014 6.135686 -4.232844 -7.083485 1.121082 8.253611 -17.148035 -8.166299 -2.477627 12.440067 11.369731 15.626758 -88.957863 -25.080458 50.386883 -0.345453 5.031955 16.585724 -9.449679 -6.407065 -0.304289 -11.970992 -13.360194 17.910847 87.515907 27.794123 33.657246 -8.365664 -5.054398 13.387986 -23.861170 -2.966935 -1.441205 -18.420691 9.908237 1.114664 42.257637 -1.057691 -5.948693 -18.787104 1.212582 -7.885994 -12.330217 -6.023650 -2.539127 29.150991 1.503326 1.821414 -17.261736 4.425814 0.710449 
